<svg width="80" height="80" viewBox="0 0 80 80" fill="none" xmlns="http://www.w3.org/2000/svg">
<path d="M40.3529 79.8814C18.4558 79.8814 0.705811 62.1314 0.705811 40.2343C0.705811 18.3373 18.4558 0.58728 40.3529 0.58728C62.2499 0.58728 79.9999 18.3373 79.9999 40.2343C79.9999 62.1314 62.2499 79.8814 40.3529 79.8814ZM36.3882 56.0932V64.0226H44.3176V56.0932H48.2823C50.123 56.0932 51.9274 55.5806 53.4932 54.6128C55.059 53.6451 56.3244 52.2605 57.1476 50.6141C57.9708 48.9677 58.3193 47.1246 58.154 45.2913C57.9887 43.458 57.3161 41.7069 56.2117 40.2343C57.3161 38.7618 57.9887 37.0107 58.154 35.1774C58.3193 33.3441 57.9708 31.501 57.1476 29.8546C56.3244 28.2082 55.059 26.8236 53.4932 25.8558C51.9274 24.8881 50.123 24.3755 48.2823 24.3755H44.3176V16.4461H36.3882V24.3755H24.494V56.0932H36.3882ZM32.4235 44.199H48.2823C48.808 44.199 49.3123 44.4079 49.684 44.7797C50.0558 45.1514 50.2646 45.6556 50.2646 46.1814C50.2646 46.7072 50.0558 47.2114 49.684 47.5831C49.3123 47.9549 48.808 48.1638 48.2823 48.1638H32.4235V44.199ZM32.4235 32.3049H48.2823C48.808 32.3049 49.3123 32.5138 49.684 32.8855C50.0558 33.2573 50.2646 33.7615 50.2646 34.2873C50.2646 34.813 50.0558 35.3173 49.684 35.689C49.3123 36.0608 48.808 36.2696 48.2823 36.2696H32.4235V32.3049Z" fill="#7FFF00"/>
</svg>
