<svg width="83" height="67" viewBox="0 0 83 67" fill="none" xmlns="http://www.w3.org/2000/svg">
<path d="M31.7191 0.174561H47.5786C62.5302 0.174561 70.008 0.17456 74.6508 4.8214C77.9972 8.16379 78.9329 12.9772 79.1946 20.9902H0.103156C0.364838 12.9772 1.30055 8.16379 4.64691 4.8214C9.28978 0.17456 16.7676 0.174561 31.7191 0.174561Z" fill="#7FFF00"/>
<path fill-rule="evenodd" clip-rule="evenodd" d="M79.2976 35.1369L77.676 33.5152C76.8476 32.6868 75.8641 32.0297 74.7818 31.5814C73.6994 31.133 72.5394 30.9023 71.3679 30.9023C70.1963 30.9023 69.0363 31.133 67.9539 31.5814C66.8716 32.0297 65.8881 32.6868 65.0597 33.5152L61.8839 36.6911C61.1485 34.7353 59.7503 33.0995 57.9329 32.0687C56.1154 31.0379 53.9939 30.6775 51.9379 31.0502C49.882 31.4229 48.022 32.5051 46.682 34.1082C45.342 35.7114 44.6069 37.7339 44.6049 39.8234V46.8174C42.9355 47.0041 41.3526 47.6583 40.0386 48.7049C38.7246 49.7514 37.7327 51.1477 37.1772 52.733C36.6217 54.3184 36.5251 56.0284 36.8985 57.6662C37.2719 59.304 38.1002 60.8031 39.288 61.991L40.9096 63.6126H31.719C16.7675 63.6126 9.28972 63.6126 4.64684 58.9658C-3.19909e-07 54.3229 0 46.8452 0 31.8936C0 30.1411 3.69894e-07 28.4917 0.00793013 26.9375H79.2897C79.2976 28.4917 79.2976 30.1411 79.2976 31.8936V35.1369ZM15.8595 44.7795C15.0709 44.7795 14.3145 45.0928 13.7568 45.6504C13.1992 46.2081 12.8859 46.9645 12.8859 47.7531C12.8859 48.5418 13.1992 49.2981 13.7568 49.8558C14.3145 50.4135 15.0709 50.7268 15.8595 50.7268H31.719C32.5077 50.7268 33.2641 50.4135 33.8217 49.8558C34.3794 49.2981 34.6927 48.5418 34.6927 47.7531C34.6927 46.9645 34.3794 46.2081 33.8217 45.6504C33.2641 45.0928 32.5077 44.7795 31.719 44.7795H15.8595Z" fill="#7FFF00"/>
<path fill-rule="evenodd" clip-rule="evenodd" d="M53.5259 36.8497C54.3146 36.8497 55.0709 37.163 55.6286 37.7207C56.1863 38.2783 56.4996 39.0347 56.4996 39.8234V56.4362L59.3543 53.5815C59.6265 53.2893 59.9548 53.055 60.3196 52.8925C60.6843 52.7299 61.0781 52.6425 61.4774 52.6355C61.8767 52.6285 62.2733 52.7019 62.6435 52.8515C63.0138 53.001 63.3502 53.2236 63.6325 53.506C63.9149 53.7884 64.1375 54.1247 64.2871 54.495C64.4366 54.8653 64.5101 55.2619 64.503 55.6612C64.496 56.0604 64.4086 56.4542 64.2461 56.819C64.0835 57.1837 63.8492 57.512 63.5571 57.7843L55.6273 65.714C55.0697 66.2709 54.3139 66.5837 53.5259 66.5837C52.7379 66.5837 51.9821 66.2709 51.4245 65.714L43.4947 57.7843C43.2026 57.512 42.9683 57.1837 42.8057 56.819C42.6432 56.4542 42.5558 56.0604 42.5488 55.6612C42.5417 55.2619 42.6152 54.8653 42.7647 54.495C42.9143 54.1247 43.1369 53.7884 43.4193 53.506C43.7016 53.2236 44.038 53.001 44.4083 52.8515C44.7785 52.7019 45.1751 52.6285 45.5744 52.6355C45.9737 52.6425 46.3675 52.7299 46.7322 52.8925C47.097 53.055 47.4253 53.2893 47.6975 53.5815L50.5522 56.4362V39.8234C50.5522 39.0347 50.8655 38.2783 51.4232 37.7207C51.9809 37.163 52.7372 36.8497 53.5259 36.8497ZM69.2665 37.722C69.824 37.1651 70.5798 36.8523 71.3679 36.8523C72.1559 36.8523 72.9117 37.1651 73.4692 37.722L81.399 45.6517C81.6912 45.924 81.9255 46.2523 82.088 46.617C82.2506 46.9818 82.3379 47.3756 82.345 47.7748C82.352 48.1741 82.2786 48.5707 82.129 48.941C81.9795 49.3113 81.7569 49.6476 81.4745 49.93C81.1921 50.2124 80.8558 50.435 80.4855 50.5845C80.1152 50.7341 79.7186 50.8075 79.3193 50.8005C78.9201 50.7934 78.5263 50.706 78.1615 50.5435C77.7968 50.381 77.4685 50.1467 77.1962 49.8545L74.3415 46.9998V63.6126C74.3415 64.4013 74.0282 65.1577 73.4706 65.7153C72.9129 66.273 72.1565 66.5863 71.3679 66.5863C70.5792 66.5863 69.8228 66.273 69.2652 65.7153C68.7075 65.1577 68.3942 64.4013 68.3942 63.6126V46.9998L65.5395 49.8545C65.2672 50.1467 64.939 50.381 64.5742 50.5435C64.2094 50.706 63.8157 50.7934 63.4164 50.8005C63.0171 50.8075 62.6205 50.7341 62.2502 50.5845C61.88 50.435 61.5436 50.2124 61.2612 49.93C60.9789 49.6476 60.7562 49.3113 60.6067 48.941C60.4571 48.5707 60.3837 48.1741 60.3907 47.7748C60.3978 47.3756 60.4852 46.9818 60.6477 46.617C60.8102 46.2523 61.0446 45.924 61.3367 45.6517L69.2665 37.722Z" fill="#7FFF00"/>
</svg>
