<svg width="80" height="64" viewBox="0 0 80 64" fill="none" xmlns="http://www.w3.org/2000/svg">
<path d="M15.925 63.7291C11.5638 63.7291 7.83038 62.1763 4.72469 59.0706C1.619 55.9649 0.0661621 52.2315 0.0661621 47.8703V16.1526C0.0661621 11.7915 1.619 8.05804 4.72469 4.95235C7.83038 1.84667 11.5638 0.293823 15.925 0.293823H63.5015C67.8626 0.293823 71.5961 1.84667 74.7018 4.95235C77.8074 8.05804 79.3603 11.7915 79.3603 16.1526V47.8703C79.3603 52.2315 77.8074 55.9649 74.7018 59.0706C71.5961 62.1763 67.8626 63.7291 63.5015 63.7291H15.925ZM15.925 16.1526H63.5015C64.9552 16.1526 66.3428 16.3178 67.6644 16.6482C68.986 16.9786 70.2415 17.5073 71.4309 18.2341V16.1526C71.4309 13.9721 70.6551 12.106 69.1036 10.5545C67.5521 9.00296 65.6847 8.22588 63.5015 8.22324H15.925C13.7444 8.22324 11.8783 9.00032 10.3268 10.5545C8.7753 12.1086 7.99822 13.9747 7.99557 16.1526V18.2341C9.18499 17.5073 10.4405 16.9786 11.762 16.6482C13.0836 16.3178 14.4713 16.1526 15.925 16.1526ZM8.59028 29.0379L52.6976 39.7426C53.2923 39.8748 53.887 39.8748 54.4818 39.7426C55.0765 39.6105 55.6381 39.3462 56.1667 38.9497L69.9441 27.4521C69.2172 26.4609 68.2921 25.6521 67.1688 25.0257C66.0455 24.3992 64.823 24.0847 63.5015 24.0821H15.925C14.2069 24.0821 12.7043 24.5288 11.4171 25.4221C10.1299 26.3155 9.18763 27.5208 8.59028 29.0379Z" fill="#7FFF00"/>
</svg>
