<svg width="237" height="85" viewBox="0 0 237 85" fill="none" xmlns="http://www.w3.org/2000/svg">
<rect x="0.5" y="0.5" width="236" height="84" rx="11.5" stroke="#C1C9D2"/>
<path d="M42.5 14.0625C26.7908 14.0625 14.0625 26.7908 14.0625 42.5C14.0625 58.2092 26.7908 70.9375 42.5 70.9375C58.2092 70.9375 70.9375 58.2092 70.9375 42.5C70.9375 26.7908 58.2092 14.0625 42.5 14.0625ZM31.709 54.9274C31.5345 55.2251 31.2847 55.4715 30.9847 55.642C30.6848 55.8125 30.3452 55.901 30.0002 55.8986C29.6486 55.9017 29.303 55.8067 29.0023 55.6244C28.7785 55.4947 28.5824 55.322 28.4254 55.1163C28.2685 54.9106 28.1536 54.6759 28.0876 54.4257C28.0215 54.1756 28.0055 53.9148 28.0405 53.6584C28.0755 53.402 28.1608 53.1551 28.2914 52.9317L30.2325 49.7046C30.3306 49.538 30.4706 49.4 30.6385 49.3042C30.8064 49.2085 30.9964 49.1583 31.1897 49.1587H31.4767C32.8846 49.1587 33.8697 50.0055 34.1566 50.8256L31.709 54.9274ZM48.1431 48.5798L35.4313 48.5938H26.9825C26.7167 48.5949 26.4534 48.542 26.2087 48.4383C25.9639 48.3346 25.7427 48.1823 25.5586 47.9906C25.3745 47.7989 25.2312 47.5717 25.1375 47.323C25.0438 47.0742 25.0016 46.809 25.0135 46.5435C25.0541 45.4771 25.9847 44.6696 27.0447 44.6696H33.1689L40.4294 32.3107L38.0782 28.3054C37.5488 27.3926 37.7837 26.1891 38.6914 25.6152C38.9152 25.4705 39.1659 25.3725 39.4285 25.3272C39.6912 25.2818 39.9602 25.2901 40.2196 25.3514C40.4789 25.4127 40.7232 25.5258 40.9377 25.684C41.1523 25.8421 41.3326 26.042 41.4679 26.2716L42.7247 28.4184H42.7387L43.9968 26.2716C44.1322 26.0432 44.3123 25.8444 44.5262 25.687C44.7401 25.5297 44.9835 25.417 45.2419 25.3558C45.5003 25.2945 45.7684 25.2859 46.0302 25.3305C46.2919 25.3751 46.5421 25.4719 46.7656 25.6152C47.6683 26.1891 47.9006 27.3926 47.3674 28.3092L45.0162 32.3146L42.7311 36.2107L37.7685 44.6734V44.6874H45.0822C45.9988 44.6874 47.1478 45.18 47.6124 45.9722L47.653 46.0547C48.0631 46.7517 48.2954 47.2303 48.2954 47.9272C48.2887 48.1536 48.2383 48.3764 48.1469 48.5836L48.1431 48.5798ZM58.0137 48.5938H54.572V48.6077L57.0882 52.8873C57.3588 53.338 57.4416 53.877 57.3189 54.3882C57.1961 54.8993 56.8776 55.3419 56.4318 55.6206C56.1228 55.809 55.768 55.9087 55.4061 55.9088C55.062 55.9086 54.7238 55.8195 54.4244 55.65C54.1249 55.4804 53.8745 55.2364 53.6973 54.9414L49.9788 48.6115L47.6683 44.676L44.6874 39.5801C44.2557 38.8524 44.021 38.0249 44.0065 37.1789C43.992 36.333 44.1983 35.4978 44.6049 34.7559C45.1939 33.7161 45.6446 33.4432 45.6446 33.4432L52.2754 44.6582H57.9769C59.0433 44.6582 59.9586 45.4783 60.0081 46.5308C60.0184 46.7983 59.9744 47.0652 59.879 47.3154C59.7835 47.5656 59.6384 47.7938 59.4525 47.9865C59.2666 48.1792 59.0436 48.3323 58.797 48.4367C58.5504 48.541 58.2853 48.5945 58.0175 48.5938H58.0137Z" fill="#212529"/>
<path d="M90.4526 35.3054V21.8279H95.0952C96.1433 21.8279 96.9431 21.8923 97.4947 22.021C98.2669 22.1987 98.9258 22.5205 99.4713 22.9863C100.182 23.5869 100.712 24.3561 101.062 25.2938C101.417 26.2254 101.595 27.2919 101.595 28.4931C101.595 29.5167 101.475 30.4237 101.236 31.2144C100.997 32.005 100.691 32.6608 100.317 33.1817C99.9432 33.6966 99.5326 34.1042 99.0851 34.4045C98.6439 34.6987 98.1076 34.9224 97.4763 35.0756C96.8512 35.2288 96.131 35.3054 95.3159 35.3054H90.4526ZM92.2361 33.715H95.1136C96.0023 33.715 96.6979 33.6322 97.2005 33.4667C97.7092 33.3013 98.1137 33.0684 98.414 32.768C98.8369 32.3451 99.1648 31.7782 99.3977 31.0673C99.6367 30.3502 99.7563 29.4829 99.7563 28.4655C99.7563 27.0559 99.5234 25.9741 99.0576 25.2203C98.5979 24.4603 98.0371 23.9516 97.3752 23.6942C96.8971 23.5103 96.1279 23.4184 95.0676 23.4184H92.2361V33.715ZM104.233 23.7309V21.8279H105.888V23.7309H104.233ZM104.233 35.3054V25.542H105.888V35.3054H104.233ZM108.131 32.3911L109.767 32.1337C109.859 32.7895 110.113 33.2921 110.53 33.6414C110.953 33.9908 111.541 34.1654 112.295 34.1654C113.055 34.1654 113.619 34.0122 113.987 33.7058C114.355 33.3932 114.538 33.0285 114.538 32.6118C114.538 32.2379 114.376 31.9437 114.051 31.7292C113.824 31.5821 113.261 31.3952 112.36 31.1684C111.146 30.862 110.303 30.5984 109.831 30.3778C109.366 30.151 109.01 29.8415 108.765 29.4492C108.526 29.0509 108.407 28.6126 108.407 28.1346C108.407 27.6994 108.505 27.298 108.701 26.9302C108.903 26.5564 109.176 26.2469 109.519 26.0017C109.776 25.8117 110.126 25.6524 110.567 25.5237C111.014 25.3888 111.492 25.3214 112.001 25.3214C112.767 25.3214 113.438 25.4317 114.014 25.6524C114.597 25.873 115.026 26.1733 115.302 26.5533C115.577 26.9272 115.767 27.4298 115.872 28.061L114.253 28.2817C114.18 27.7791 113.965 27.3869 113.61 27.1049C113.261 26.823 112.764 26.682 112.121 26.682C111.361 26.682 110.818 26.8077 110.493 27.059C110.169 27.3102 110.006 27.6044 110.006 27.9415C110.006 28.156 110.074 28.3491 110.208 28.5207C110.343 28.6984 110.555 28.8455 110.843 28.962C111.008 29.0233 111.495 29.1642 112.304 29.3849C113.475 29.6975 114.29 29.9549 114.75 30.1571C115.216 30.3532 115.58 30.6413 115.844 31.0213C116.107 31.4013 116.239 31.8732 116.239 32.4371C116.239 32.9887 116.077 33.5096 115.752 34C115.433 34.4841 114.971 34.8611 114.364 35.1307C113.757 35.3943 113.071 35.5261 112.304 35.5261C111.036 35.5261 110.067 35.2625 109.399 34.7354C108.737 34.2083 108.315 33.4269 108.131 32.3911ZM118.583 39.0471V25.542H120.091V26.8107C120.446 26.3143 120.848 25.9435 121.295 25.6983C121.743 25.447 122.285 25.3214 122.922 25.3214C123.756 25.3214 124.491 25.5359 125.129 25.9649C125.766 26.394 126.247 27.0007 126.572 27.7852C126.897 28.5636 127.06 29.4186 127.06 30.3502C127.06 31.3492 126.879 32.2502 126.517 33.053C126.162 33.8498 125.641 34.4627 124.954 34.8917C124.274 35.3146 123.557 35.5261 122.803 35.5261C122.251 35.5261 121.755 35.4096 121.314 35.1767C120.878 34.9438 120.52 34.6496 120.238 34.2941V39.0471H118.583ZM120.082 30.4789C120.082 31.7353 120.336 32.6639 120.845 33.2645C121.353 33.8651 121.969 34.1654 122.693 34.1654C123.428 34.1654 124.056 33.8559 124.577 33.2369C125.104 32.6118 125.368 31.6465 125.368 30.341C125.368 29.0968 125.111 28.1652 124.596 27.5462C124.087 26.9272 123.477 26.6177 122.766 26.6177C122.061 26.6177 121.436 26.9486 120.891 27.6106C120.351 28.2664 120.082 29.2225 120.082 30.4789ZM128.824 30.4237C128.824 28.6157 129.327 27.2765 130.332 26.4062C131.172 25.683 132.195 25.3214 133.403 25.3214C134.745 25.3214 135.842 25.7627 136.694 26.6453C137.546 27.5217 137.972 28.7352 137.972 30.2858C137.972 31.5423 137.782 32.5321 137.402 33.2553C137.028 33.9724 136.479 34.5301 135.756 34.9285C135.039 35.3269 134.255 35.5261 133.403 35.5261C132.036 35.5261 130.93 35.0878 130.084 34.2114C129.244 33.335 128.824 32.0724 128.824 30.4237ZM130.525 30.4237C130.525 31.674 130.798 32.6118 131.343 33.2369C131.889 33.8559 132.575 34.1654 133.403 34.1654C134.224 34.1654 134.907 33.8529 135.453 33.2277C135.998 32.6026 136.271 31.6495 136.271 30.3686C136.271 29.1612 135.995 28.248 135.444 27.6289C134.898 27.0038 134.218 26.6912 133.403 26.6912C132.575 26.6912 131.889 27.0007 131.343 27.6197C130.798 28.2388 130.525 29.1734 130.525 30.4237ZM140.297 35.3054V25.542H141.787V26.9302C142.504 25.8577 143.539 25.3214 144.894 25.3214C145.482 25.3214 146.022 25.4287 146.512 25.6432C147.008 25.8516 147.379 26.1274 147.624 26.4706C147.87 26.8138 148.041 27.2214 148.139 27.6933C148.201 27.9997 148.231 28.536 148.231 29.3021V35.3054H146.576V29.3665C146.576 28.6923 146.512 28.1897 146.383 27.8588C146.255 27.5217 146.025 27.2551 145.694 27.059C145.369 26.8567 144.986 26.7556 144.545 26.7556C143.84 26.7556 143.23 26.9793 142.715 27.4267C142.206 27.8741 141.952 28.723 141.952 29.9733V35.3054H140.297ZM151.733 35.3054V25.542H153.388V35.3054H151.733ZM151.651 24.3285L152.873 21.7544H155.043L153.021 24.3285H151.651ZM159.483 35.3054L155.769 25.542H157.516L159.612 31.389C159.839 32.0203 160.047 32.6761 160.237 33.3564C160.384 32.8416 160.589 32.2226 160.853 31.4994L163.023 25.542H164.723L161.028 35.3054H159.483ZM173.245 32.1613L174.955 32.3727C174.686 33.3717 174.186 34.1471 173.457 34.6987C172.727 35.2503 171.796 35.5261 170.662 35.5261C169.234 35.5261 168.1 35.0878 167.26 34.2114C166.427 33.3288 166.01 32.0939 166.01 30.5065C166.01 28.8639 166.433 27.5891 167.279 26.682C168.125 25.7749 169.222 25.3214 170.57 25.3214C171.875 25.3214 172.942 25.7657 173.769 26.6544C174.597 27.5431 175.01 28.7934 175.01 30.4053C175.01 30.5034 175.007 30.6505 175.001 30.8466H167.72C167.781 31.9192 168.085 32.7405 168.63 33.3105C169.176 33.8804 169.856 34.1654 170.671 34.1654C171.278 34.1654 171.796 34.0061 172.225 33.6874C172.654 33.3687 172.994 32.86 173.245 32.1613ZM167.812 29.486H173.264C173.19 28.6647 172.982 28.0488 172.638 27.6381C172.111 27.0007 171.428 26.682 170.588 26.682C169.828 26.682 169.188 26.9364 168.667 27.4451C168.152 27.9538 167.867 28.6341 167.812 29.486ZM177.382 35.3054V21.8279H179.037V35.3054H177.382ZM187.604 35.3054V25.542H189.094V26.9302C189.811 25.8577 190.846 25.3214 192.201 25.3214C192.789 25.3214 193.329 25.4287 193.819 25.6432C194.315 25.8516 194.686 26.1274 194.931 26.4706C195.176 26.8138 195.348 27.2214 195.446 27.6933C195.507 27.9997 195.538 28.536 195.538 29.3021V35.3054H193.883V29.3665C193.883 28.6923 193.819 28.1897 193.69 27.8588C193.562 27.5217 193.332 27.2551 193.001 27.059C192.676 26.8567 192.293 26.7556 191.852 26.7556C191.147 26.7556 190.537 26.9793 190.022 27.4267C189.513 27.8741 189.259 28.723 189.259 29.9733V35.3054H187.604ZM204.832 34.1011C204.219 34.622 203.628 34.9898 203.058 35.2043C202.494 35.4188 201.887 35.5261 201.238 35.5261C200.165 35.5261 199.341 35.2656 198.765 34.7446C198.189 34.2175 197.9 33.5464 197.9 32.7313C197.9 32.2532 198.008 31.8181 198.222 31.4258C198.443 31.0274 198.728 30.7087 199.077 30.4697C199.433 30.2307 199.831 30.0499 200.272 29.9273C200.597 29.8415 201.087 29.7587 201.743 29.6791C203.079 29.5197 204.063 29.3297 204.694 29.1091C204.7 28.8823 204.704 28.7383 204.704 28.677C204.704 28.0028 204.547 27.5278 204.235 27.252C203.812 26.8781 203.184 26.6912 202.35 26.6912C201.572 26.6912 200.996 26.8291 200.622 27.1049C200.254 27.3746 199.981 27.8557 199.803 28.5483L198.185 28.3276C198.333 27.6351 198.575 27.0773 198.912 26.6544C199.249 26.2254 199.736 25.8975 200.373 25.6708C201.011 25.4379 201.749 25.3214 202.589 25.3214C203.423 25.3214 204.1 25.4195 204.621 25.6156C205.142 25.8117 205.525 26.0599 205.77 26.3603C206.015 26.6544 206.187 27.0283 206.285 27.4818C206.34 27.7638 206.368 28.2725 206.368 29.008V31.2144C206.368 32.7527 206.401 33.7272 206.469 34.1379C206.542 34.5424 206.683 34.9316 206.892 35.3054H205.163C204.992 34.9622 204.881 34.5608 204.832 34.1011ZM204.694 30.4053C204.094 30.6505 203.193 30.8589 201.991 31.0305C201.311 31.1286 200.83 31.2389 200.548 31.3615C200.266 31.484 200.049 31.6648 199.895 31.9039C199.742 32.1368 199.666 32.3972 199.666 32.6853C199.666 33.1266 199.831 33.4943 200.162 33.7885C200.499 34.0827 200.989 34.2298 201.633 34.2298C202.27 34.2298 202.837 34.0919 203.334 33.8161C203.83 33.5342 204.195 33.1511 204.428 32.6669C204.605 32.2931 204.694 31.7415 204.694 31.0121V30.4053Z" fill="#C1C9D2"/>
<path d="M106.592 61.6946H102.742L101.211 57.7121H94.2024L92.7553 61.6946H89L95.8289 44.1619H99.5722L106.592 61.6946ZM100.075 54.758L97.6587 48.2521L95.2907 54.758H100.075ZM108.852 48.9936H111.986V50.8592C112.392 50.2214 112.943 49.7032 113.636 49.3045C114.33 48.9058 115.099 48.7065 115.944 48.7065C117.419 48.7065 118.671 49.2846 119.7 50.4407C120.728 51.5967 121.242 53.2073 121.242 55.2723C121.242 57.3931 120.724 59.0435 119.688 60.2236C118.651 61.3956 117.395 61.9816 115.92 61.9816C115.219 61.9816 114.581 61.8421 114.007 61.563C113.441 61.284 112.843 60.8056 112.213 60.1279V66.5262H108.852V48.9936ZM112.177 55.1288C112.177 56.556 112.46 57.6124 113.026 58.2981C113.592 58.9758 114.282 59.3146 115.095 59.3146C115.877 59.3146 116.526 59.0037 117.045 58.3818C117.563 57.7519 117.822 56.7234 117.822 55.2962C117.822 53.9647 117.555 52.9761 117.021 52.3303C116.487 51.6844 115.825 51.3615 115.035 51.3615C114.214 51.3615 113.533 51.6805 112.99 52.3183C112.448 52.9482 112.177 53.885 112.177 55.1288ZM124.316 48.9936H127.449V50.8592C127.856 50.2214 128.406 49.7032 129.099 49.3045C129.793 48.9058 130.562 48.7065 131.408 48.7065C132.883 48.7065 134.134 49.2846 135.163 50.4407C136.191 51.5967 136.706 53.2073 136.706 55.2723C136.706 57.3931 136.187 59.0435 135.151 60.2236C134.114 61.3956 132.859 61.9816 131.384 61.9816C130.682 61.9816 130.044 61.8421 129.47 61.563C128.904 61.284 128.306 60.8056 127.676 60.1279V66.5262H124.316V48.9936ZM127.64 55.1288C127.64 56.556 127.923 57.6124 128.489 58.2981C129.056 58.9758 129.745 59.3146 130.558 59.3146C131.34 59.3146 131.99 59.0037 132.508 58.3818C133.026 57.7519 133.285 56.7234 133.285 55.2962C133.285 53.9647 133.018 52.9761 132.484 52.3303C131.95 51.6844 131.288 51.3615 130.499 51.3615C129.677 51.3615 128.996 51.6805 128.454 52.3183C127.911 52.9482 127.64 53.885 127.64 55.1288ZM146.308 55.9899L149.753 55.655C149.96 56.8111 150.378 57.6602 151.008 58.2024C151.646 58.7446 152.503 59.0156 153.58 59.0156C154.72 59.0156 155.577 58.7765 156.151 58.2981C156.733 57.8117 157.024 57.2456 157.024 56.5998C157.024 56.1852 156.9 55.8344 156.653 55.5474C156.414 55.2524 155.991 54.9972 155.385 54.782C154.971 54.6385 154.026 54.3833 152.551 54.0166C150.653 53.5461 149.322 52.9681 148.557 52.2824C147.48 51.3177 146.942 50.1417 146.942 48.7544C146.942 47.8614 147.193 47.0282 147.695 46.2548C148.206 45.4735 148.935 44.8795 149.884 44.4728C150.841 44.0662 151.993 43.8629 153.34 43.8629C155.541 43.8629 157.195 44.3453 158.304 45.31C159.42 46.2747 160.006 47.5624 160.062 49.1729L156.522 49.3284C156.37 48.4275 156.043 47.7817 155.541 47.391C155.047 46.9923 154.301 46.793 153.305 46.793C152.276 46.793 151.471 47.0043 150.889 47.4269C150.514 47.6979 150.327 48.0607 150.327 48.5152C150.327 48.9298 150.502 49.2846 150.853 49.5796C151.299 49.9543 152.384 50.345 154.106 50.7516C155.828 51.1582 157.1 51.5808 157.921 52.0193C158.75 52.4499 159.396 53.0438 159.858 53.8013C160.329 54.5507 160.564 55.4796 160.564 56.5879C160.564 57.5925 160.285 58.5333 159.727 59.4103C159.169 60.2873 158.379 60.9411 157.359 61.3717C156.338 61.7942 155.067 62.0055 153.544 62.0055C151.327 62.0055 149.625 61.4953 148.437 60.4747C147.249 59.4462 146.539 57.9512 146.308 55.9899ZM169.832 48.9936V51.6725H167.536V56.7912C167.536 57.8277 167.556 58.4336 167.596 58.609C167.644 58.7765 167.743 58.916 167.895 59.0276C168.054 59.1392 168.245 59.195 168.469 59.195C168.78 59.195 169.23 59.0874 169.82 58.8721L170.107 61.4793C169.326 61.8142 168.441 61.9816 167.452 61.9816C166.846 61.9816 166.3 61.8819 165.814 61.6826C165.327 61.4753 164.969 61.2122 164.737 60.8933C164.514 60.5664 164.359 60.1279 164.271 59.5777C164.199 59.1871 164.163 58.3977 164.163 57.2098V51.6725H162.621V48.9936H164.163V46.4701L167.536 44.5087V48.9936H169.832ZM171.877 55.1647C171.877 54.0484 172.152 52.9681 172.702 51.9236C173.252 50.8792 174.029 50.0819 175.034 49.5317C176.047 48.9816 177.175 48.7065 178.419 48.7065C180.34 48.7065 181.915 49.3324 183.143 50.5842C184.37 51.828 184.984 53.4026 184.984 55.3082C184.984 57.2297 184.362 58.8243 183.119 60.092C181.883 61.3517 180.324 61.9816 178.443 61.9816C177.278 61.9816 176.166 61.7185 175.106 61.1923C174.053 60.6661 173.252 59.8967 172.702 58.8841C172.152 57.8635 171.877 56.6237 171.877 55.1647ZM175.321 55.3441C175.321 56.6038 175.62 57.5685 176.218 58.2383C176.816 58.908 177.554 59.2429 178.431 59.2429C179.308 59.2429 180.041 58.908 180.631 58.2383C181.229 57.5685 181.528 56.5958 181.528 55.3201C181.528 54.0764 181.229 53.1196 180.631 52.4499C180.041 51.7801 179.308 51.4453 178.431 51.4453C177.554 51.4453 176.816 51.7801 176.218 52.4499C175.62 53.1196 175.321 54.0843 175.321 55.3441ZM191.334 61.6946H187.974V48.9936H191.095V50.7994C191.629 49.9463 192.108 49.3842 192.53 49.1131C192.961 48.8421 193.447 48.7065 193.989 48.7065C194.755 48.7065 195.492 48.9178 196.202 49.3404L195.161 52.2705C194.595 51.9037 194.069 51.7203 193.583 51.7203C193.112 51.7203 192.714 51.8519 192.387 52.115C192.06 52.3701 191.801 52.8365 191.609 53.5143C191.426 54.192 191.334 55.6112 191.334 57.7719V61.6946ZM205.506 57.6523L208.855 58.2144C208.424 59.4422 207.742 60.379 206.81 61.0248C205.885 61.6627 204.725 61.9816 203.329 61.9816C201.121 61.9816 199.486 61.2601 198.426 59.8169C197.589 58.6608 197.17 57.2018 197.17 55.4397C197.17 53.3349 197.72 51.6884 198.821 50.5005C199.921 49.3045 201.312 48.7065 202.994 48.7065C204.884 48.7065 206.375 49.3324 207.467 50.5842C208.56 51.828 209.082 53.7375 209.034 56.3128H200.615C200.638 57.3094 200.91 58.0868 201.428 58.6449C201.946 59.195 202.592 59.4701 203.365 59.4701C203.891 59.4701 204.334 59.3266 204.693 59.0396C205.052 58.7525 205.323 58.2901 205.506 57.6523ZM205.697 54.2557C205.673 53.283 205.422 52.5455 204.944 52.0432C204.466 51.533 203.883 51.2778 203.198 51.2778C202.464 51.2778 201.858 51.5449 201.38 52.0791C200.902 52.6133 200.666 53.3388 200.674 54.2557H205.697Z" fill="#C1C9D2"/>
</svg>
