<svg width="59" height="60" viewBox="0 0 59 60" fill="none" xmlns="http://www.w3.org/2000/svg">
<g clip-path="url(#clip0_23_42)">
<path d="M58.0421 37.1296C54.1057 52.921 38.1064 62.5205 22.3375 58.5839C6.54553 54.6475 -3.05392 38.6489 0.882669 22.8802C4.81903 7.08874 20.7951 -2.51071 36.587 1.42588C52.3559 5.33923 61.9786 21.3378 58.0421 37.1296Z" fill="url(#paint0_linear_23_42)"/>
<path d="M43.4894 26.3336C44.0648 22.4208 41.0956 20.3032 36.9986 18.8992L38.3336 13.5823L35.1112 12.7767L33.8223 17.9555C32.9706 17.7483 32.096 17.5412 31.2214 17.357L32.5103 12.1552L29.2879 11.3496L27.976 16.6435C27.2624 16.4824 26.5719 16.3213 25.9044 16.1602V16.1371L21.4391 15.0323L20.5875 18.4849C20.5875 18.4849 22.9813 19.0373 22.9352 19.0603C24.2472 19.3825 24.4774 20.2572 24.4314 20.9477L22.9122 27.0011C23.0043 27.0242 23.1194 27.0472 23.2575 27.1162C23.1424 27.0932 23.0273 27.0702 22.9122 27.0242L20.7947 35.4944C20.6336 35.8857 20.2192 36.4841 19.3216 36.254C19.3446 36.3 16.9739 35.6785 16.9739 35.6785L15.3627 39.3843L19.5748 40.443C20.3573 40.6502 21.1169 40.8343 21.8765 41.0415L20.5415 46.4044L23.7639 47.21L25.0988 41.8931C25.9735 42.1233 26.8481 42.3534 27.6767 42.5606L26.3648 47.8545L29.5871 48.6601L30.9221 43.2971C36.4462 44.3329 40.5893 43.9186 42.3155 38.9239C43.7196 34.919 42.2465 32.5943 39.3463 31.0751C41.4869 30.5918 43.0751 29.1877 43.4894 26.3336ZM36.1009 36.6913C35.1112 40.6962 28.3442 38.5326 26.1576 37.9802L27.9299 30.868C30.1165 31.4204 37.1597 32.5022 36.1009 36.6913ZM37.1137 26.2646C36.193 29.9243 30.5769 28.0599 28.7585 27.5996L30.3697 21.1548C32.1881 21.6152 38.0574 22.4668 37.1137 26.2646Z" fill="white"/>
</g>
<defs>
<linearGradient id="paint0_linear_23_42" x1="2944.58" y1="-0.870947" x2="2944.58" y2="5892.29" gradientUnits="userSpaceOnUse">
<stop stop-color="#F9AA4B"/>
<stop offset="1" stop-color="#F7931A"/>
</linearGradient>
<clipPath id="clip0_23_42">
<rect width="58.9234" height="58.9234" fill="white" transform="translate(0 0.543213)"/>
</clipPath>
</defs>
</svg>
