<svg width="59" height="59" viewBox="0 0 59 59" fill="none" xmlns="http://www.w3.org/2000/svg">
<g clip-path="url(#clip0_23_47)">
<path d="M29.4617 58.9252C45.733 58.9252 58.9234 45.7348 58.9234 29.4635C58.9234 13.1923 45.733 0.00183105 29.4617 0.00183105C13.1905 0.00183105 0 13.1923 0 29.4635C0 45.7348 13.1905 58.9252 29.4617 58.9252Z" fill="#F3BA2F"/>
<path d="M22.31 26.5249L29.4618 19.3731L36.6173 26.5286L40.7788 22.3671L29.4618 11.0502L18.1485 22.3635L22.31 26.5249ZM11.0482 29.4637L15.2097 25.3023L19.3712 29.4637L15.2097 33.6252L11.0482 29.4637ZM22.31 32.4025L29.4618 39.5544L36.6173 32.3989L40.7788 36.5585L29.4618 47.8773L18.1485 36.564L18.143 36.5585L22.31 32.4025ZM39.5524 29.4637L43.7139 25.3023L47.8753 29.4637L43.7139 33.6252L39.5524 29.4637ZM33.6822 29.4601H33.6859V29.4637L29.4618 33.6878L25.2432 29.4711L25.2359 29.4637L25.2432 29.4582L25.9816 28.718L26.3407 28.3589L29.4618 25.2397L33.6822 29.4601Z" fill="white"/>
</g>
<defs>
<clipPath id="clip0_23_47">
<rect width="58.9234" height="58.9234" fill="white" transform="translate(0 0.00183105)"/>
</clipPath>
</defs>
</svg>
