<svg width="65" height="65" viewBox="0 0 65 65" fill="none" xmlns="http://www.w3.org/2000/svg">
<path fill-rule="evenodd" clip-rule="evenodd" d="M32.2676 3.82788C16.3032 3.82788 3.36121 16.7699 3.36121 32.7343C3.36121 48.6986 16.3032 61.6406 32.2676 61.6406C48.232 61.6406 61.174 48.6986 61.174 32.7343C61.174 16.7699 48.232 3.82788 32.2676 3.82788ZM33.9078 12.7391C33.7212 12.4782 33.475 12.2656 33.1898 12.1189C32.9045 11.9722 32.5884 11.8957 32.2676 11.8957C31.9468 11.8957 31.6307 11.9722 31.3454 12.1189C31.0601 12.2656 30.8139 12.4782 30.6273 12.7391L17.1825 31.5619C16.9381 31.9039 16.8067 32.3138 16.8067 32.7343C16.8067 33.1547 16.9381 33.5646 17.1825 33.9066L30.6273 52.7294C30.8139 52.9903 31.0601 53.2029 31.3454 53.3496C31.6307 53.4963 31.9468 53.5728 32.2676 53.5728C32.5884 53.5728 32.9045 53.4963 33.1898 53.3496C33.475 53.2029 33.7212 52.9903 33.9078 52.7294L47.3527 33.9066C47.5971 33.5646 47.7285 33.1547 47.7285 32.7343C47.7285 32.3138 47.5971 31.9039 47.3527 31.5619L33.9078 12.7391ZM32.2676 48.0882L23.429 35.7109L31.8723 37.3996C32.1331 37.4534 32.402 37.4534 32.6629 37.3996L41.1062 35.7109L32.2676 48.0882ZM34.2843 32.9628L42.2598 31.3683L34.2843 20.2037V32.9628ZM30.2509 32.9628V20.2037L22.2754 31.3683L30.2509 32.9628Z" fill="#687EE3"/>
</svg>
