<svg width="641" height="653" viewBox="0 0 641 653" fill="none" xmlns="http://www.w3.org/2000/svg">
<g clip-path="url(#clip0_13_184)">
<path d="M419.92 302.636C398.169 389.893 309.763 442.936 222.63 421.184C135.37 399.433 82.3276 311.031 104.08 223.9C125.83 136.642 214.108 83.5994 301.368 105.351C388.501 126.975 441.672 215.377 419.92 302.636Z" fill="url(#paint0_linear_13_184)"/>
<path d="M339.508 242.982C342.687 221.361 326.281 209.66 303.642 201.902L311.019 172.523L293.213 168.072L286.091 196.688C281.385 195.543 276.552 194.399 271.719 193.381L278.842 164.638L261.036 160.186L253.787 189.438C249.844 188.548 246.028 187.658 242.34 186.768V186.64L217.667 180.536L212.961 199.613C212.961 199.613 226.188 202.665 225.934 202.793C233.183 204.573 234.455 209.406 234.2 213.222L225.806 246.671C226.315 246.798 226.951 246.925 227.714 247.306C227.078 247.179 226.442 247.052 225.806 246.798L214.106 293.601C213.215 295.763 210.926 299.07 205.966 297.798C206.093 298.052 192.993 294.618 192.993 294.618L184.091 315.095L207.365 320.945C211.689 322.09 215.886 323.107 220.083 324.252L212.707 353.885L230.512 358.337L237.889 328.958C242.722 330.229 247.555 331.501 252.133 332.646L244.884 361.898L262.689 366.349L270.066 336.716C300.59 342.439 323.483 340.15 333.021 312.551C340.779 290.421 332.64 277.576 316.615 269.182C328.443 266.511 337.218 258.753 339.508 242.982ZM298.682 300.214C293.213 322.344 255.822 310.389 243.739 307.337L253.532 268.037C265.615 271.09 304.532 277.067 298.682 300.214ZM304.278 242.601C299.191 262.823 268.158 252.521 258.111 249.977L267.014 214.366C277.061 216.91 309.493 221.616 304.278 242.601Z" fill="white"/>
</g>
<g clip-path="url(#clip1_13_184)">
<path d="M429.877 652.446C515.571 652.446 585.04 582.978 585.04 497.284C585.04 411.59 515.571 342.121 429.877 342.121C344.183 342.121 274.714 411.59 274.714 497.284C274.714 582.978 344.183 652.446 429.877 652.446Z" fill="#F3BA2F"/>
<path d="M392.211 481.806L429.877 444.14L467.562 481.826L489.479 459.909L429.877 400.307L370.295 459.889L392.211 481.806ZM332.9 497.284L354.817 475.367L376.734 497.284L354.817 519.2L332.9 497.284ZM392.211 512.761L429.877 550.427L467.562 512.742L489.479 534.649L429.877 594.26L370.295 534.678L370.266 534.649L392.211 512.761ZM483.02 497.284L504.937 475.367L526.854 497.284L504.937 519.2L483.02 497.284ZM452.104 497.264H452.124V497.284L429.877 519.53L407.66 497.322L407.621 497.284L407.66 497.255L411.548 493.356L413.44 491.465L429.877 475.037L452.104 497.264Z" fill="white"/>
</g>
<g clip-path="url(#clip2_13_184)">
<path d="M151.983 652.446C68.041 652.446 0 584.405 0 500.463C0 416.521 68.041 348.48 151.983 348.48C235.925 348.48 303.966 416.521 303.966 500.463C303.966 584.405 235.925 652.446 151.983 652.446ZM219.141 424.472L175.693 467.435C169.371 473.675 160.846 477.173 151.964 477.173C143.082 477.173 134.557 473.675 128.236 467.435L84.8256 424.472H57.3261L114.51 481.057C124.499 490.899 137.96 496.416 151.983 496.416C166.007 496.416 179.467 490.899 189.456 481.057L246.602 424.472H219.141ZM84.4931 581.803L128.274 538.459C134.595 532.22 143.12 528.721 152.002 528.721C160.884 528.721 169.409 532.22 175.73 538.459L219.473 581.803H246.973L189.456 524.876C179.467 515.034 166.007 509.517 151.983 509.517C137.96 509.517 124.499 515.034 114.51 524.876L56.9937 581.793L84.4931 581.803Z" fill="#0E0E0E"/>
</g>
<g clip-path="url(#clip3_13_184)">
<path d="M641 243.708L511.91 430.435V325.204L641 243.708ZM572.582 309.343L531.142 335.421V369.179L572.582 309.343Z" fill="#5A9DED"/>
<path d="M382.819 243.708L511.91 430.435V325.204L382.819 243.708ZM451.237 309.343L492.677 335.421V369.179L451.237 309.343Z" fill="#53D3E0"/>
<path d="M528.286 158.335L613.783 205.952L616.814 215.218L606.634 224.105L528.286 180.377V158.335Z" fill="#D995D1"/>
<path d="M495.59 158.335L410.093 205.952L407.062 215.218L417.242 224.105L495.59 180.377V158.335Z" fill="#A6E276"/>
<path d="M511.91 0L641 221.07L511.91 302.365V0ZM530.975 70.9159V268.296L615.309 215.217L530.975 70.9159Z" fill="#FF9C92"/>
<path d="M511.91 0L382.819 221.07L511.91 302.365V0ZM492.845 70.9159V268.296L408.51 215.218L492.845 70.9159Z" fill="#FFE94D"/>
</g>
<defs>
<linearGradient id="paint0_linear_13_184" x1="16369.8" y1="92.6601" x2="16369.8" y2="32655.9" gradientUnits="userSpaceOnUse">
<stop stop-color="#F9AA4B"/>
<stop offset="1" stop-color="#F7931A"/>
</linearGradient>
<clipPath id="clip0_13_184">
<rect width="325.587" height="325.587" fill="white" transform="translate(99.2024 100.474)"/>
</clipPath>
<clipPath id="clip1_13_184">
<rect width="310.325" height="310.325" fill="white" transform="translate(274.714 342.121)"/>
</clipPath>
<clipPath id="clip2_13_184">
<rect width="303.966" height="303.966" fill="white" transform="translate(0 348.48)"/>
</clipPath>
<clipPath id="clip3_13_184">
<rect width="258.181" height="430.637" fill="white" transform="translate(382.819)"/>
</clipPath>
</defs>
</svg>
