<svg width="135" height="121" viewBox="0 0 135 121" fill="none" xmlns="http://www.w3.org/2000/svg">
<path d="M125.518 56.0319C125.518 61.3998 123.927 66.6472 120.944 71.1105C117.962 75.5739 113.724 79.0527 108.765 81.1069C103.805 83.1611 98.3483 83.6986 93.0835 82.6513C87.8188 81.6039 82.983 79.0189 79.1875 75.223L79.0276 75.0534L49.9744 42.2444C47.2543 39.5561 43.7999 37.7325 40.0459 37.0029C36.2918 36.2734 32.4059 36.6706 28.877 38.1444C25.3481 39.6183 22.3341 42.103 20.2141 45.2859C18.0941 48.4688 16.9629 52.2076 16.9629 56.0319C16.9629 59.8562 18.0941 63.595 20.2141 66.7779C22.3341 69.9608 25.3481 72.4456 28.877 73.9194C32.4059 75.3933 36.2918 75.7904 40.0459 75.0609C43.7999 74.3314 47.2543 72.5077 49.9744 69.8195L54.1034 65.1574C54.7852 64.3862 55.7455 63.9175 56.7729 63.8543C57.8004 63.7912 58.8109 64.1387 59.582 64.8206C60.3532 65.5024 60.8219 66.4627 60.8851 67.4902C60.9483 68.5176 60.6007 69.5281 59.9188 70.2993L55.7075 75.0534L55.5475 75.223C51.752 79.0182 46.9163 81.6027 41.6519 82.6496C36.3875 83.6965 30.9309 83.1589 25.9721 81.1048C21.0133 79.0506 16.7749 75.5721 13.793 71.1092C10.811 66.6463 9.21942 61.3994 9.21942 56.0319C9.21942 50.6645 10.811 45.4175 13.793 40.9546C16.7749 36.4917 21.0133 33.0132 25.9721 30.9591C30.9309 28.9049 36.3875 28.3673 41.6519 29.4142C46.9163 30.4612 51.752 33.0456 55.5475 36.8408L55.7075 37.0104L84.7607 69.8195C87.4807 72.5077 90.9351 74.3314 94.6892 75.0609C98.4432 75.7904 102.329 75.3933 105.858 73.9194C109.387 72.4456 112.401 69.9608 114.521 66.7779C116.641 63.595 117.772 59.8562 117.772 56.0319C117.772 52.2076 116.641 48.4688 114.521 45.2859C112.401 42.103 109.387 39.6183 105.858 38.1444C102.329 36.6706 98.4432 36.2734 94.6892 37.0029C90.9351 37.7325 87.4807 39.5561 84.7607 42.2444L80.6317 46.9064C79.9498 47.6776 78.9896 48.1464 77.9621 48.2095C76.9347 48.2727 75.9242 47.9251 75.153 47.2433C74.3818 46.5614 73.9131 45.6011 73.8499 44.5737C73.7868 43.5462 74.1343 42.5358 74.8162 41.7646L79.0276 37.0104L79.1875 36.8408C82.983 33.045 87.8188 30.4599 93.0835 29.4126C98.3483 28.3653 103.805 28.9027 108.765 30.9569C113.724 33.0112 117.962 36.49 120.944 40.9533C123.927 45.4166 125.518 50.6641 125.518 56.0319Z" fill="url(#paint0_linear_4_104)"/>
<path d="M7.50697 97.3489C9.07675 97.3489 10.4367 97.7219 11.5868 98.4679L11.2138 100.17L11.004 100.216C9.96267 99.346 8.76591 98.9109 7.41372 98.9109C5.93719 98.9109 4.8026 99.4238 4.00994 100.45C3.21727 101.46 2.82094 102.944 2.82094 104.902C2.82094 106.876 3.21727 108.384 4.00994 109.425C4.8026 110.467 5.92165 110.987 7.36709 110.987C8.05096 110.987 8.72705 110.863 9.39537 110.614C10.0792 110.366 10.7009 110.016 11.2605 109.565L11.4936 109.682L11.3304 111.454C9.97821 112.2 8.60271 112.573 7.2039 112.573C5.19893 112.573 3.64469 111.928 2.54118 110.638C1.43767 109.332 0.885916 107.475 0.885916 105.066C0.885916 102.594 1.46098 100.69 2.61112 99.3538C3.76126 98.0172 5.39321 97.3489 7.50697 97.3489ZM18.7099 109.076L18.7798 112.409H17.0313L17.1246 109.076L17.1012 108.353L13.1612 100.799H15.073L15.3061 101.475L17.9172 106.464H18.0338L20.878 101.545L21.1811 100.799H23.0462L18.7332 108.353L18.7099 109.076ZM31.6176 106.371C33.3428 106.713 34.2054 107.63 34.2054 109.122C34.2054 110.241 33.7702 111.081 32.8998 111.64C32.0295 112.2 30.755 112.479 29.0764 112.479C28.0662 112.479 27.0948 112.456 26.1622 112.409L26.2321 108.912L26.1622 100.799L29.7991 100.776C30.9648 100.776 31.8663 101.025 32.5035 101.522C33.1563 102.004 33.4827 102.695 33.4827 103.597C33.4827 104.265 33.3195 104.833 32.9931 105.299C32.6667 105.765 32.2082 106.123 31.6176 106.371ZM31.6409 103.807C31.6409 103.232 31.4544 102.812 31.0814 102.548C30.7084 102.284 30.11 102.151 29.2862 102.151H27.8641L27.8408 105.742L29.9157 105.812C30.4908 105.687 30.9182 105.47 31.1979 105.159C31.4932 104.833 31.6409 104.382 31.6409 103.807ZM29.2862 111.15C30.2965 111.15 31.0658 110.98 31.5943 110.638C32.1383 110.28 32.4102 109.759 32.4102 109.076C32.4102 108.516 32.2237 108.081 31.8507 107.77C31.4777 107.459 30.9104 107.249 30.1488 107.141L27.8408 107.164L27.8175 108.773L27.8641 111.081C28.3459 111.127 28.82 111.15 29.2862 111.15ZM44.94 110.917L45.0799 111.057L44.9167 112.409H37.8527L37.9226 108.912L37.8527 100.799H44.9633L45.0799 100.939L44.94 102.291L42.0025 102.198L39.5779 102.221L39.5546 105.742L41.8626 105.765L43.8909 105.695L44.0075 105.858L43.8676 107.234L41.7227 107.164L39.5546 107.187L39.5313 108.773L39.5546 110.987L41.8393 111.011L44.94 110.917ZM53.7892 107.723C54.7372 109.169 55.7864 110.591 56.9365 111.99L56.9132 112.223C56.2604 112.425 55.7242 112.542 55.3045 112.573L55.0015 112.386C53.8202 110.599 52.9266 109.192 52.3204 108.166L50.1289 108.19V108.773L50.1756 112.409H48.4504L48.5203 108.912L48.4504 100.799L52.4137 100.776C53.6415 100.776 54.5818 101.063 55.2346 101.639C55.9029 102.214 56.2371 103.045 56.2371 104.133C56.2371 104.926 56.0195 105.633 55.5843 106.255C55.1647 106.876 54.5663 107.366 53.7892 107.723ZM50.1522 106.744L52.3437 106.814C53.727 106.426 54.4186 105.579 54.4186 104.273C54.4186 103.589 54.2166 103.076 53.8125 102.734C53.4084 102.392 52.7945 102.206 51.9707 102.175L50.1756 102.198L50.1522 106.744ZM73.1081 112.409H71.1731L68.2589 103.737H68.0957L65.0183 112.409H63.0833L58.3273 97.4654H60.1924L60.4488 98.9109L64.0858 110.335H64.2489L67.4662 101.242L66.2073 97.4654H68.119L68.4687 99.0741L72.1522 110.335H72.2921L76.3487 99.0041L76.6984 97.4654H78.4702L73.1081 112.409ZM88.2987 110.917L88.4386 111.057L88.2754 112.409H81.2114L81.2813 108.912L81.2114 100.799H88.322L88.4386 100.939L88.2987 102.291L85.3612 102.198L82.9366 102.221L82.9133 105.742L85.2213 105.765L87.2496 105.695L87.3662 105.858L87.2263 107.234L85.0815 107.164L82.9133 107.187L82.89 108.773L82.9133 110.987L85.198 111.011L88.2987 110.917ZM100.855 112.409H99.1062L98.8264 111.15L98.2203 109.425L95.446 109.402L92.9747 109.425L92.3453 111.057L92.0189 112.409H90.2937L94.7699 100.799H96.7749L100.855 112.409ZM97.7307 108.003L95.7957 102.501H95.6558L93.5343 108.003L95.5859 108.026L97.7307 108.003ZM110.453 111.104L110.337 112.409H104.159L104.229 108.912L104.159 100.799H105.907L105.837 108.773L105.884 110.941H110.36L110.453 111.104ZM119.665 100.939L119.549 102.408L117.38 102.245H116.215L116.145 108.773L116.215 112.409H114.466L114.536 108.912L114.49 102.245H113.324L111.109 102.408L110.969 102.245L111.109 100.799H119.572L119.665 100.939ZM132.616 108.773L132.663 112.409H130.938L131.008 108.912L130.984 107.327L124.666 107.35L124.643 108.773L124.69 112.409H122.965L123.035 108.912L122.965 100.799H124.713L124.666 105.788L127.814 105.812L130.984 105.788L130.938 100.799H132.686L132.616 108.773Z" fill="white"/>
<defs>
<linearGradient id="paint0_linear_4_104" x1="9.20777" y1="56.0319" x2="125.518" y2="56.0319" gradientUnits="userSpaceOnUse">
<stop stop-color="white"/>
<stop offset="1" stop-color="#7FFF00"/>
</linearGradient>
</defs>
</svg>
