<svg width="237" height="82" viewBox="0 0 237 82" fill="none" xmlns="http://www.w3.org/2000/svg">
<rect x="0.5" y="0.5" width="236" height="80.4806" rx="11.5" stroke="#C1C9D2"/>
<path d="M10.9392 13.0217L39.2204 40.756L11.1496 68.746C10.6915 68.1471 10.3351 67.477 10.0947 66.7624C9.96844 65.9529 9.96844 65.1288 10.0947 64.3193V16.6879C10.0105 15.4098 10.305 14.1316 10.936 13.0217M51.4033 28.6605L42.1714 37.8049L14.2268 10.323C15.1329 10.0092 16.1036 9.9218 17.0517 10.0707C18.5402 10.4784 19.9607 11.1061 21.2648 11.9248L46.556 25.9197C48.1998 26.8031 49.8015 27.7318 51.4033 28.6605ZM42.1747 43.7492L51.3612 52.7707L44.7019 56.4789L24.3841 67.772C22.7015 68.7006 21.0124 69.5873 19.3686 70.6001C18.6653 71.0384 17.8766 71.3214 17.0552 71.4302C16.2337 71.5391 15.3985 71.4711 14.6054 71.2311L42.1747 43.7492ZM65.9904 40.756C66.0158 41.8878 65.7306 43.005 65.1659 43.9862C64.6011 44.9674 63.7784 45.7751 62.7869 46.3217L55.1957 50.5347L45.2067 40.756L55.2377 30.8091C57.8102 32.2426 60.3406 33.676 62.8678 35.0254C63.8762 35.5881 64.7045 36.4251 65.2566 37.4394C65.8087 38.4537 66.0652 39.6037 65.9904 40.756Z" fill="#212529"/>
<path d="M81.4526 33.5457V20.0682H86.0952C87.1433 20.0682 87.9431 20.1325 88.4947 20.2612C89.2669 20.439 89.9258 20.7607 90.4713 21.2265C91.1822 21.8272 91.7124 22.5963 92.0617 23.5341C92.4172 24.4657 92.5949 25.5321 92.5949 26.7334C92.5949 27.7569 92.4754 28.664 92.2364 29.4546C91.9974 30.2452 91.6909 30.901 91.3171 31.422C90.9432 31.9368 90.5326 32.3444 90.0851 32.6447C89.6439 32.9389 89.1076 33.1626 88.4763 33.3158C87.8512 33.469 87.131 33.5457 86.3159 33.5457H81.4526ZM83.2361 31.9552H86.1136C87.0023 31.9552 87.6979 31.8725 88.2005 31.707C88.7092 31.5415 89.1137 31.3086 89.414 31.0083C89.8369 30.5854 90.1648 30.0185 90.3977 29.3075C90.6367 28.5904 90.7563 27.7232 90.7563 26.7058C90.7563 25.2961 90.5234 24.2144 90.0576 23.4605C89.5979 22.7005 89.0371 22.1918 88.3752 21.9344C87.8971 21.7505 87.1279 21.6586 86.0676 21.6586H83.2361V31.9552ZM95.2331 21.9712V20.0682H96.8879V21.9712H95.2331ZM95.2331 33.5457V23.7823H96.8879V33.5457H95.2331ZM99.1307 30.6314L100.767 30.3739C100.859 31.0297 101.113 31.5323 101.53 31.8817C101.953 32.231 102.541 32.4057 103.295 32.4057C104.055 32.4057 104.619 32.2525 104.987 31.946C105.355 31.6334 105.538 31.2688 105.538 30.852C105.538 30.4781 105.376 30.1839 105.051 29.9694C104.824 29.8223 104.261 29.6354 103.36 29.4086C102.146 29.1022 101.303 28.8386 100.831 28.618C100.366 28.3912 100.01 28.0817 99.765 27.6895C99.526 27.2911 99.4065 26.8529 99.4065 26.3748C99.4065 25.9397 99.5046 25.5382 99.7007 25.1705C99.9029 24.7966 100.176 24.4871 100.519 24.2419C100.776 24.052 101.126 23.8926 101.567 23.7639C102.014 23.6291 102.492 23.5616 103.001 23.5616C103.767 23.5616 104.438 23.672 105.014 23.8926C105.597 24.1132 106.026 24.4136 106.302 24.7936C106.577 25.1674 106.767 25.67 106.872 26.3013L105.253 26.5219C105.18 26.0193 104.965 25.6271 104.61 25.3452C104.261 25.0632 103.764 24.9223 103.121 24.9223C102.361 24.9223 101.818 25.0479 101.493 25.2992C101.169 25.5505 101.006 25.8447 101.006 26.1818C101.006 26.3963 101.074 26.5893 101.208 26.7609C101.343 26.9387 101.555 27.0858 101.843 27.2022C102.008 27.2635 102.495 27.4045 103.304 27.6251C104.475 27.9377 105.29 28.1951 105.75 28.3974C106.216 28.5935 106.58 28.8815 106.844 29.2615C107.107 29.6415 107.239 30.1135 107.239 30.6773C107.239 31.2289 107.077 31.7499 106.752 32.2402C106.433 32.7244 105.971 33.1013 105.364 33.371C104.757 33.6345 104.071 33.7663 103.304 33.7663C102.036 33.7663 101.067 33.5028 100.399 32.9757C99.7375 32.4486 99.3146 31.6671 99.1307 30.6314ZM109.583 37.2874V23.7823H111.091V25.051C111.446 24.5545 111.848 24.1837 112.295 23.9386C112.743 23.6873 113.285 23.5616 113.922 23.5616C114.756 23.5616 115.491 23.7761 116.129 24.2052C116.766 24.6342 117.247 25.241 117.572 26.0255C117.897 26.8038 118.06 27.6588 118.06 28.5904C118.06 29.5894 117.879 30.4904 117.517 31.2933C117.162 32.09 116.641 32.7029 115.954 33.132C115.274 33.5548 114.557 33.7663 113.803 33.7663C113.251 33.7663 112.755 33.6498 112.314 33.4169C111.878 33.184 111.52 32.8899 111.238 32.5344V37.2874H109.583ZM111.082 28.7191C111.082 29.9756 111.336 30.9041 111.845 31.5047C112.353 32.1054 112.969 32.4057 113.693 32.4057C114.428 32.4057 115.056 32.0962 115.577 31.4771C116.104 30.852 116.368 29.8867 116.368 28.5812C116.368 27.3371 116.111 26.4055 115.596 25.7864C115.087 25.1674 114.477 24.8579 113.766 24.8579C113.061 24.8579 112.436 25.1889 111.891 25.8508C111.351 26.5066 111.082 27.4627 111.082 28.7191ZM119.824 28.664C119.824 26.8559 120.327 25.5168 121.332 24.6465C122.172 23.9232 123.195 23.5616 124.403 23.5616C125.745 23.5616 126.842 24.0029 127.694 24.8855C128.546 25.7619 128.972 26.9754 128.972 28.5261C128.972 29.7825 128.782 30.7723 128.402 31.4955C128.028 32.2126 127.479 32.7703 126.756 33.1687C126.039 33.5671 125.255 33.7663 124.403 33.7663C123.036 33.7663 121.93 33.3281 121.084 32.4516C120.244 31.5752 119.824 30.3126 119.824 28.664ZM121.525 28.664C121.525 29.9143 121.798 30.852 122.343 31.4771C122.889 32.0962 123.575 32.4057 124.403 32.4057C125.224 32.4057 125.907 32.0931 126.453 31.4679C126.998 30.8428 127.271 29.8898 127.271 28.6088C127.271 27.4014 126.995 26.4882 126.444 25.8692C125.898 25.244 125.218 24.9315 124.403 24.9315C123.575 24.9315 122.889 25.241 122.343 25.86C121.798 26.479 121.525 27.4137 121.525 28.664ZM131.297 33.5457V23.7823H132.787V25.1705C133.504 24.0979 134.539 23.5616 135.894 23.5616C136.482 23.5616 137.022 23.6689 137.512 23.8834C138.008 24.0918 138.379 24.3676 138.624 24.7108C138.87 25.054 139.041 25.4616 139.139 25.9335C139.201 26.24 139.231 26.7763 139.231 27.5424V33.5457H137.576V27.6067C137.576 26.9325 137.512 26.43 137.383 26.099C137.255 25.7619 137.025 25.4953 136.694 25.2992C136.369 25.0969 135.986 24.9958 135.545 24.9958C134.84 24.9958 134.23 25.2195 133.715 25.6669C133.206 26.1143 132.952 26.9632 132.952 28.2135V33.5457H131.297ZM142.733 33.5457V23.7823H144.388V33.5457H142.733ZM142.651 22.5688L143.873 19.9946H146.043L144.021 22.5688H142.651ZM150.483 33.5457L146.769 23.7823H148.516L150.612 29.6293C150.839 30.2606 151.047 30.9163 151.237 31.5967C151.384 31.0818 151.589 30.4628 151.853 29.7396L154.023 23.7823H155.723L152.028 33.5457H150.483ZM164.245 30.4015L165.955 30.613C165.686 31.612 165.186 32.3873 164.457 32.9389C163.727 33.4905 162.796 33.7663 161.662 33.7663C160.234 33.7663 159.1 33.3281 158.26 32.4516C157.427 31.5691 157.01 30.3341 157.01 28.7467C157.01 27.1042 157.433 25.8293 158.279 24.9223C159.125 24.0152 160.222 23.5616 161.57 23.5616C162.875 23.5616 163.942 24.006 164.769 24.8947C165.597 25.7834 166.01 27.0337 166.01 28.6456C166.01 28.7436 166.007 28.8907 166.001 29.0869H158.72C158.781 30.1594 159.085 30.9807 159.63 31.5507C160.176 32.1207 160.856 32.4057 161.671 32.4057C162.278 32.4057 162.796 32.2463 163.225 31.9276C163.654 31.6089 163.994 31.1002 164.245 30.4015ZM158.812 27.7262H164.264C164.19 26.905 163.982 26.289 163.638 25.8784C163.111 25.241 162.428 24.9223 161.588 24.9223C160.828 24.9223 160.188 25.1766 159.667 25.6853C159.152 26.194 158.867 26.8743 158.812 27.7262ZM168.382 33.5457V20.0682H170.037V33.5457H168.382ZM178.604 33.5457V23.7823H180.094V25.1705C180.811 24.0979 181.846 23.5616 183.201 23.5616C183.789 23.5616 184.329 23.6689 184.819 23.8834C185.315 24.0918 185.686 24.3676 185.931 24.7108C186.176 25.054 186.348 25.4616 186.446 25.9335C186.507 26.24 186.538 26.7763 186.538 27.5424V33.5457H184.883V27.6067C184.883 26.9325 184.819 26.43 184.69 26.099C184.562 25.7619 184.332 25.4953 184.001 25.2992C183.676 25.0969 183.293 24.9958 182.852 24.9958C182.147 24.9958 181.537 25.2195 181.022 25.6669C180.513 26.1143 180.259 26.9632 180.259 28.2135V33.5457H178.604ZM188.845 28.664C188.845 26.8559 189.348 25.5168 190.353 24.6465C191.193 23.9232 192.216 23.5616 193.424 23.5616C194.766 23.5616 195.863 24.0029 196.715 24.8855C197.567 25.7619 197.993 26.9754 197.993 28.5261C197.993 29.7825 197.803 30.7723 197.423 31.4955C197.049 32.2126 196.5 32.7703 195.777 33.1687C195.06 33.5671 194.276 33.7663 193.424 33.7663C192.057 33.7663 190.951 33.3281 190.105 32.4516C189.265 31.5752 188.845 30.3126 188.845 28.664ZM190.546 28.664C190.546 29.9143 190.819 30.852 191.364 31.4771C191.91 32.0962 192.596 32.4057 193.424 32.4057C194.245 32.4057 194.928 32.0931 195.474 31.4679C196.019 30.8428 196.292 29.8898 196.292 28.6088C196.292 27.4014 196.016 26.4882 195.465 25.8692C194.919 25.244 194.239 24.9315 193.424 24.9315C192.596 24.9315 191.91 25.241 191.364 25.86C190.819 26.479 190.546 27.4137 190.546 28.664Z" fill="#C1C9D2"/>
<path d="M89.9384 53.4886V50.5346H97.5686V57.519C96.8271 58.2366 95.7507 58.8704 94.3395 59.4206C92.9362 59.9627 91.513 60.2338 90.0699 60.2338C88.2361 60.2338 86.6375 59.8511 85.2742 59.0857C83.9108 58.3123 82.8862 57.212 82.2006 55.7849C81.5149 54.3497 81.172 52.791 81.172 51.1087C81.172 49.2829 81.5547 47.6603 82.3202 46.2411C83.0856 44.8219 84.2058 43.7336 85.6808 42.9762C86.805 42.3942 88.2042 42.1031 89.8786 42.1031C92.0552 42.1031 93.7535 42.5616 94.9733 43.4785C96.2012 44.3874 96.9905 45.6472 97.3413 47.2577L93.8252 47.9155C93.5781 47.0544 93.1116 46.3767 92.426 45.8824C91.7483 45.3801 90.8991 45.1289 89.8786 45.1289C88.3318 45.1289 87.1 45.6192 86.1831 46.5999C85.2742 47.5806 84.8197 49.0357 84.8197 50.9652C84.8197 53.0461 85.2821 54.6088 86.207 55.6533C87.1319 56.6898 88.3438 57.208 89.8427 57.208C90.5842 57.208 91.3257 57.0645 92.0672 56.7775C92.8166 56.4825 93.4585 56.1277 93.9927 55.7131V53.4886H89.9384ZM100.534 53.4049C100.534 52.2887 100.809 51.2083 101.359 50.1639C101.909 49.1194 102.687 48.3221 103.691 47.772C104.704 47.2218 105.832 46.9468 107.076 46.9468C108.997 46.9468 110.572 47.5726 111.8 48.8244C113.028 50.0682 113.642 51.6429 113.642 53.5484C113.642 55.4699 113.02 57.0645 111.776 58.3322C110.54 59.592 108.981 60.2218 107.1 60.2218C105.936 60.2218 104.824 59.9587 103.763 59.4325C102.711 58.9063 101.909 58.1369 101.359 57.1243C100.809 56.1038 100.534 54.864 100.534 53.4049ZM103.978 53.5843C103.978 54.844 104.277 55.8088 104.875 56.4785C105.473 57.1482 106.211 57.4831 107.088 57.4831C107.965 57.4831 108.698 57.1482 109.288 56.4785C109.886 55.8088 110.185 54.8361 110.185 53.5604C110.185 52.3166 109.886 51.3598 109.288 50.6901C108.698 50.0204 107.965 49.6855 107.088 49.6855C106.211 49.6855 105.473 50.0204 104.875 50.6901C104.277 51.3598 103.978 52.3246 103.978 53.5843ZM115.997 53.4049C115.997 52.2887 116.272 51.2083 116.822 50.1639C117.373 49.1194 118.15 48.3221 119.155 47.772C120.167 47.2218 121.295 46.9468 122.539 46.9468C124.461 46.9468 126.035 47.5726 127.263 48.8244C128.491 50.0682 129.105 51.6429 129.105 53.5484C129.105 55.4699 128.483 57.0645 127.239 58.3322C126.003 59.592 124.445 60.2218 122.563 60.2218C121.399 60.2218 120.287 59.9587 119.226 59.4325C118.174 58.9063 117.373 58.1369 116.822 57.1243C116.272 56.1038 115.997 54.864 115.997 53.4049ZM119.442 53.5843C119.442 54.844 119.741 55.8088 120.339 56.4785C120.937 57.1482 121.674 57.4831 122.551 57.4831C123.428 57.4831 124.162 57.1482 124.752 56.4785C125.35 55.8088 125.649 54.8361 125.649 53.5604C125.649 52.3166 125.35 51.3598 124.752 50.6901C124.162 50.0204 123.428 49.6855 122.551 49.6855C121.674 49.6855 120.937 50.0204 120.339 50.6901C119.741 51.3598 119.442 52.3246 119.442 53.5843ZM131.927 60.772L135.766 61.2384C135.83 61.6849 135.977 61.9919 136.208 62.1593C136.527 62.3985 137.03 62.5181 137.715 62.5181C138.592 62.5181 139.25 62.3865 139.689 62.1234C139.984 61.948 140.207 61.665 140.358 61.2743C140.462 60.9952 140.514 60.481 140.514 59.7315V57.8778C139.509 59.2491 138.242 59.9348 136.711 59.9348C135.004 59.9348 133.653 59.2133 132.656 57.7701C131.875 56.63 131.484 55.2108 131.484 53.5125C131.484 51.3837 131.995 49.7572 133.015 48.6331C134.044 47.5089 135.319 46.9468 136.842 46.9468C138.413 46.9468 139.709 47.6364 140.729 49.0158V47.2338H143.874V58.6312C143.874 60.1302 143.751 61.2504 143.504 61.9919C143.257 62.7333 142.91 63.3154 142.463 63.7379C142.017 64.1605 141.419 64.4914 140.669 64.7306C139.928 64.9698 138.987 65.0894 137.847 65.0894C135.694 65.0894 134.167 64.7186 133.266 63.9771C132.365 63.2436 131.915 62.3108 131.915 61.1786C131.915 61.067 131.919 60.9314 131.927 60.772ZM134.929 53.3212C134.929 54.6686 135.188 55.6573 135.706 56.2872C136.232 56.9091 136.878 57.22 137.644 57.22C138.465 57.22 139.158 56.9011 139.724 56.2632C140.291 55.6174 140.574 54.6646 140.574 53.4049C140.574 52.0894 140.303 51.1127 139.76 50.4748C139.218 49.837 138.533 49.5181 137.703 49.5181C136.898 49.5181 136.232 49.833 135.706 50.4629C135.188 51.0848 134.929 52.0375 134.929 53.3212ZM147.701 59.9348V42.4021H151.062V59.9348H147.701ZM162.363 55.8925L165.712 56.4546C165.281 57.6824 164.599 58.6193 163.667 59.2651C162.742 59.9029 161.582 60.2218 160.186 60.2218C157.978 60.2218 156.343 59.5003 155.283 58.0572C154.446 56.9011 154.027 55.442 154.027 53.68C154.027 51.5751 154.577 49.9287 155.678 48.7407C156.778 47.5447 158.169 46.9468 159.851 46.9468C161.741 46.9468 163.232 47.5726 164.324 48.8244C165.417 50.0682 165.939 51.9777 165.891 54.553H157.471C157.495 55.5497 157.766 56.327 158.285 56.8851C158.803 57.4353 159.449 57.7103 160.222 57.7103C160.748 57.7103 161.191 57.5668 161.55 57.2798C161.908 56.9928 162.18 56.5303 162.363 55.8925ZM162.554 52.496C162.53 51.5233 162.279 50.7858 161.801 50.2835C161.322 49.7732 160.74 49.5181 160.055 49.5181C159.321 49.5181 158.715 49.7852 158.237 50.3193C157.759 50.8535 157.523 51.5791 157.531 52.496H162.554ZM176.462 59.9348V42.4021H182.143C184.296 42.4021 185.699 42.4898 186.353 42.6652C187.357 42.9284 188.199 43.5024 188.876 44.3874C189.554 45.2644 189.893 46.4006 189.893 47.7959C189.893 48.8722 189.698 49.7772 189.307 50.5107C188.916 51.2442 188.418 51.8223 187.812 52.2448C187.214 52.6594 186.604 52.9345 185.982 53.07C185.137 53.2375 183.913 53.3212 182.31 53.3212H180.002V59.9348H176.462ZM180.002 45.3681V50.3433H181.94C183.335 50.3433 184.268 50.2516 184.738 50.0682C185.209 49.8848 185.575 49.5978 185.839 49.2071C186.11 48.8164 186.245 48.362 186.245 47.8437C186.245 47.2059 186.058 46.6797 185.683 46.2651C185.308 45.8505 184.834 45.5913 184.26 45.4877C183.837 45.408 182.988 45.3681 181.713 45.3681H180.002ZM193.265 59.9348V42.4021H196.626V59.9348H193.265ZM203.083 51.1087L200.034 50.5585C200.376 49.3307 200.966 48.4218 201.804 47.8318C202.641 47.2418 203.885 46.9468 205.535 46.9468C207.034 46.9468 208.15 47.1261 208.884 47.4849C209.617 47.8357 210.131 48.2862 210.426 48.8364C210.729 49.3785 210.881 50.3791 210.881 51.8382L210.845 55.7609C210.845 56.8772 210.897 57.7024 211 58.2366C211.112 58.7628 211.315 59.3289 211.61 59.9348H208.286C208.198 59.7116 208.09 59.3807 207.963 58.9422C207.907 58.7428 207.867 58.6113 207.843 58.5475C207.269 59.1056 206.655 59.5242 206.001 59.8033C205.348 60.0823 204.65 60.2218 203.908 60.2218C202.601 60.2218 201.568 59.867 200.811 59.1574C200.061 58.4478 199.687 57.5509 199.687 56.4665C199.687 55.749 199.858 55.1111 200.201 54.553C200.544 53.9869 201.022 53.5564 201.636 53.2614C202.258 52.9584 203.151 52.6953 204.315 52.4721C205.886 52.1771 206.974 51.902 207.58 51.6469V51.312C207.58 50.6662 207.421 50.2077 207.102 49.9366C206.783 49.6576 206.181 49.5181 205.296 49.5181C204.698 49.5181 204.231 49.6377 203.897 49.8768C203.562 50.1081 203.291 50.5187 203.083 51.1087ZM207.58 53.8355C207.15 53.979 206.468 54.1504 205.535 54.3497C204.602 54.549 203.992 54.7444 203.705 54.9357C203.267 55.2467 203.047 55.6413 203.047 56.1197C203.047 56.5901 203.223 56.9968 203.574 57.3396C203.924 57.6824 204.371 57.8539 204.913 57.8539C205.519 57.8539 206.097 57.6545 206.647 57.2559C207.054 56.9529 207.321 56.5822 207.448 56.1436C207.536 55.8566 207.58 55.3105 207.58 54.5052V53.8355ZM213.105 47.2338H216.681L219.718 56.2513L222.684 47.2338H226.165L221.68 59.4564L220.879 61.6689C220.584 62.4104 220.301 62.9765 220.029 63.3672C219.766 63.7579 219.459 64.0728 219.109 64.312C218.766 64.5592 218.339 64.7505 217.829 64.8861C217.327 65.0216 216.757 65.0894 216.119 65.0894C215.473 65.0894 214.839 65.0216 214.217 64.8861L213.918 62.255C214.444 62.3586 214.919 62.4104 215.341 62.4104C216.123 62.4104 216.701 62.1792 217.075 61.7168C217.45 61.2623 217.737 60.6803 217.937 59.9707L213.105 47.2338Z" fill="#C1C9D2"/>
</svg>
