<svg width="181" height="181" viewBox="0 0 181 181" fill="none" xmlns="http://www.w3.org/2000/svg">
<rect width="181" height="181" fill="white"/>
<path d="M9.00488 9.00488V65.4245H65.4245V9.00488H9.00488ZM77.9622 9.00488V21.5426H90.4999V9.00488H77.9622ZM90.4999 21.5426V34.0803H77.9622V59.1557H90.4999V46.618H103.038V21.5426H90.4999ZM90.4999 59.1557V77.9622H34.0803V90.4999H21.5426V103.038H46.618V90.4999H59.1557V103.038H90.4999V90.4999H103.038V103.038H121.844V90.4999H134.382V77.9622H103.038V59.1557H90.4999ZM134.382 90.4999V103.038H171.995V90.4999H159.457V77.9622H146.92V90.4999H134.382ZM21.5426 90.4999V77.9622H9.00488V90.4999H21.5426ZM115.575 9.00488V65.4245H171.995V9.00488H115.575ZM21.5426 21.5426H52.8868V52.8868H21.5426V21.5426ZM128.113 21.5426H159.457V52.8868H128.113V21.5426ZM27.8114 27.8114V46.618H46.618V27.8114H27.8114ZM134.382 27.8114V46.618H153.188V27.8114H134.382ZM77.9622 109.306V121.844H90.4999V109.306H77.9622ZM90.4999 121.844V134.382H77.9622V159.457H90.4999V146.92H115.575V134.382H128.113V121.844H140.651V134.382H128.113V146.92H115.575V171.995H128.113V159.457H140.651V146.92H146.92V159.457H140.651V171.995H153.188V159.457H159.457V146.92H171.995V121.844H159.457V109.306H115.575V121.844H90.4999ZM159.457 159.457V171.995H171.995V159.457H159.457ZM90.4999 159.457V171.995H103.038V159.457H90.4999ZM9.00488 115.575V171.995H65.4245V115.575H9.00488ZM21.5426 128.113H52.8868V159.457H21.5426V128.113ZM27.8114 134.382V153.188H46.618V134.382H27.8114Z" fill="black"/>
</svg>
