<svg width="886" height="1137" viewBox="0 0 886 1137" fill="none" xmlns="http://www.w3.org/2000/svg">
<rect x="446.111" y="523.371" width="121.407" height="121.407" transform="rotate(-30 446.111 523.371)" stroke="#343A40" stroke-width="2.16797"/>
<rect x="553.13" y="461.583" width="121.407" height="121.407" transform="rotate(-30 553.13 461.583)" stroke="#343A40" stroke-width="2.16797"/>
<rect x="660.149" y="399.796" width="121.407" height="121.407" transform="rotate(-30 660.149 399.796)" stroke="#343A40" stroke-width="2.16797"/>
<rect x="828.955" y="445.027" width="121.407" height="121.407" transform="rotate(-30 828.955 445.027)" stroke="#343A40" stroke-width="2.16797"/>
<rect x="598.362" y="292.777" width="121.407" height="121.407" transform="rotate(-30 598.362 292.777)" stroke="#343A40" stroke-width="2.16797"/>
<rect x="491.343" y="354.565" width="121.407" height="121.407" transform="rotate(-30 491.343 354.565)" stroke="#343A40" stroke-width="2.16797"/>
<rect x="643.593" y="123.971" width="121.407" height="121.407" transform="rotate(-30 643.593 123.971)" stroke="#343A40" stroke-width="2.16797"/>
<rect x="507.898" y="630.389" width="121.407" height="121.407" transform="rotate(-30 507.898 630.389)" stroke="#343A40" stroke-width="2.16797"/>
<rect x="614.917" y="568.602" width="121.407" height="121.407" transform="rotate(-30 614.917 568.602)" stroke="#343A40" stroke-width="2.16797"/>
<rect x="676.705" y="675.621" width="121.407" height="121.407" transform="rotate(-30 676.705 675.621)" stroke="#343A40" stroke-width="2.16797"/>
<rect x="738.492" y="782.639" width="121.407" height="121.407" transform="rotate(-30 738.492 782.639)" stroke="#343A40" stroke-width="2.16797"/>
<rect x="845.511" y="720.852" width="121.407" height="121.407" transform="rotate(-30 845.511 720.852)" stroke="#343A40" stroke-width="2.16797"/>
<rect x="783.723" y="613.833" width="121.407" height="121.407" transform="rotate(-30 783.723 613.833)" stroke="#343A40" stroke-width="2.16797"/>
<rect x="339.093" y="585.158" width="121.407" height="121.407" transform="rotate(-30 339.093 585.158)" stroke="#343A40" stroke-width="2.16797"/>
<rect x="232.074" y="646.945" width="121.407" height="121.407" transform="rotate(-30 232.074 646.945)" stroke="#343A40" stroke-width="2.16797"/>
<rect x="170.287" y="539.926" width="121.407" height="121.407" transform="rotate(-30 170.287 539.926)" stroke="#343A40" stroke-width="2.16797"/>
<rect x="63.268" y="601.714" width="121.407" height="121.407" transform="rotate(-30 63.268 601.714)" stroke="#343A40" stroke-width="2.16797"/>
</svg>
