<svg width="59" height="60" viewBox="0 0 59 60" fill="none" xmlns="http://www.w3.org/2000/svg">
<g clip-path="url(#clip0_23_51)">
<path d="M29.4617 59.8486C13.1896 59.8486 0 46.6589 0 30.3869C0 14.1148 13.1896 0.925171 29.4617 0.925171C45.7338 0.925171 58.9234 14.1148 58.9234 30.3869C58.9234 46.6589 45.7338 59.8486 29.4617 59.8486ZM42.4801 15.656L34.0577 23.9845C32.8323 25.194 31.1798 25.8722 29.458 25.8722C27.7362 25.8722 26.0837 25.194 24.8583 23.9845L16.4433 15.656H11.1126L22.1976 26.625C24.134 28.5329 26.7433 29.6023 29.4617 29.6023C32.1801 29.6023 34.7894 28.5329 36.7259 26.625L47.8035 15.656H42.4801ZM16.3789 46.1544L24.8657 37.7523C26.0911 36.5428 27.7436 35.8646 29.4654 35.8646C31.1872 35.8646 32.8397 36.5428 34.0651 37.7523L42.5445 46.1544H47.8753L36.7259 35.1192C34.7894 33.2113 32.1801 32.1418 29.4617 32.1418C26.7433 32.1418 24.134 33.2113 22.1976 35.1192L11.0481 46.1526L16.3789 46.1544Z" fill="black"/>
</g>
<defs>
<clipPath id="clip0_23_51">
<rect width="58.9234" height="58.9234" fill="white" transform="translate(0 0.925171)"/>
</clipPath>
</defs>
</svg>
